<?xml version="1.0" encoding="utf-8"?>
<!-- Generator: Adobe Illustrator 23.1.1, SVG Export Plug-In . SVG Version: 6.00 Build 0)  -->
<svg version="1.1" id="Layer_1" xmlns="http://www.w3.org/2000/svg" xmlns:xlink="http://www.w3.org/1999/xlink" x="0px" y="0px"
	 viewBox="0 0 143.23 130.64" style="enable-background:new 0 0 143.23 130.64;" xml:space="preserve">
<style type="text/css">
	.st0{fill:#FFFFFF;}
	.st1{fill:#EC1C24;}
</style>
<g>
	<path class="st0" d="M71.63,107.42c-20.68,0-41.35,0-62.03,0c-6.55,0-9.58-3.04-9.58-9.67C0,76.63,0,55.51,0.01,34.38
		c0.01-6.65,3.03-9.68,9.56-9.68c41.35,0,82.71,0,124.06,0c6.54,0,9.57,3.03,9.58,9.65c0.02,21.12,0.02,42.24,0,63.36
		c-0.01,6.65-3.02,9.69-9.56,9.69C112.98,107.42,92.31,107.42,71.63,107.42z"/>
	<path class="st1" d="M71.63,105.42c-20.1,0-40.2,0-60.3,0c-6.36,0-9.31-2.89-9.32-9.2C2,76.12,2,56.02,2.01,35.92
		c0.01-6.33,2.94-9.21,9.3-9.21c40.2,0,80.4,0,120.6,0c6.36,0,9.31,2.88,9.31,9.19c0.02,20.1,0.02,40.2,0,60.3
		c-0.01,6.33-2.94,9.22-9.29,9.22C111.83,105.42,91.73,105.42,71.63,105.42z M71.62,103.34c20.01,0,40.01,0.01,60.02,0
		c5.53,0,7.42-1.92,7.43-7.5c0.01-19.8,0.01-39.61,0-59.41c0-5.77-1.85-7.63-7.58-7.63c-39.91,0-79.82,0-119.73,0
		c-5.73,0-7.58,1.86-7.58,7.64c0,19.7,0,39.4,0,59.11c0,5.99,1.79,7.8,7.74,7.8C31.81,103.34,51.72,103.34,71.62,103.34z"/>
	<polygon class="st1" points="34.85,74.15 15.91,74.15 15.91,57.92 34.85,57.92 34.84,57.91 34.84,38.98 51.07,38.98 51.07,57.91 
		51.07,57.92 70,57.92 70,74.14 51.07,74.14 51.07,74.14 51.07,93.07 34.84,93.07 34.84,74.14 	"/>
	<g>
		<path class="st1" d="M95.71,65.74c0-12.61,10.22-22.83,22.83-22.83c2.81,0,5.5,0.51,7.98,1.43c-4.67-3.69-10.57-5.9-16.99-5.9
			c-15.13,0-27.39,12.26-27.39,27.39c0,15.13,12.26,27.39,27.39,27.39c6.63,0,12.71-2.36,17.45-6.28c-2.61,1.04-5.46,1.61-8.44,1.61
			C105.93,88.57,95.71,78.34,95.71,65.74z"/>
	</g>
	<g>
		<path d="M4.69,0.31V13.3H2.96V0.31H4.69z"/>
		<path d="M9.42,0.31l6.84,10.53h0.04V0.31h1.64V13.3h-1.89L9.26,2.87H9.22V13.3H7.58V0.31H9.42z"/>
		<path d="M19.35,1.76V0.31h10.39v1.46h-4.33V13.3h-1.73V1.76H19.35z"/>
		<path d="M40.15,0.31v1.46h-7.24v4.13h6.75v1.46h-6.75v4.49h7.3v1.46h-9.02V0.31H40.15z"/>
		<path d="M48.41,0.31c1.24,0,2.2,0.3,2.9,0.91c0.7,0.61,1.05,1.44,1.05,2.49c0,0.79-0.18,1.48-0.54,2.07
			c-0.36,0.59-0.93,1-1.72,1.22v0.04c0.38,0.07,0.68,0.19,0.92,0.36c0.24,0.17,0.42,0.37,0.56,0.61c0.14,0.24,0.24,0.5,0.31,0.79
			c0.07,0.29,0.12,0.59,0.15,0.91c0.02,0.32,0.04,0.64,0.05,0.96c0.01,0.33,0.04,0.65,0.09,0.96c0.05,0.32,0.12,0.62,0.21,0.9
			c0.09,0.29,0.23,0.54,0.41,0.75h-1.93c-0.12-0.13-0.2-0.32-0.25-0.55c-0.04-0.23-0.07-0.49-0.08-0.77
			c-0.01-0.29-0.02-0.59-0.04-0.92s-0.05-0.65-0.11-0.96c-0.05-0.31-0.11-0.62-0.18-0.9s-0.19-0.53-0.35-0.75
			c-0.16-0.21-0.36-0.38-0.62-0.51s-0.59-0.19-1.02-0.19h-4.22v5.55H42.3V0.31H48.41z M48.77,6.2c0.36-0.06,0.68-0.18,0.96-0.35
			s0.49-0.41,0.66-0.71c0.16-0.3,0.25-0.68,0.25-1.16c0-0.66-0.18-1.19-0.55-1.6s-0.95-0.62-1.76-0.62h-4.29v4.53h3.6
			C48.03,6.29,48.41,6.26,48.77,6.2z"/>
		<path d="M56.58,0.31l6.84,10.53h0.04V0.31h1.64V13.3H63.2L56.41,2.87h-0.04V13.3h-1.64V0.31H56.58z"/>
		<path d="M73.33,0.31l5.08,12.99H76.5l-1.42-3.91h-5.49l-1.46,3.91h-1.77l5.06-12.99H73.33z M74.53,7.93l-2.17-6.06h-0.04
			l-2.2,6.06H74.53z"/>
		<path d="M76.63,1.76V0.31h10.39v1.46h-4.33V13.3h-1.73V1.76H76.63z"/>
		<path d="M90.25,0.31V13.3h-1.73V0.31H90.25z"/>
		<path d="M92.83,4.25C93.09,3.43,93.48,2.7,94,2.07c0.52-0.63,1.17-1.13,1.95-1.51C96.72,0.19,97.63,0,98.66,0
			c1.03,0,1.93,0.19,2.71,0.56s1.43,0.88,1.95,1.51c0.52,0.63,0.91,1.36,1.17,2.17s0.39,1.67,0.39,2.56c0,0.89-0.13,1.74-0.39,2.56
			s-0.65,1.54-1.17,2.17s-1.17,1.13-1.95,1.5c-0.78,0.37-1.68,0.55-2.71,0.55c-1.03,0-1.93-0.19-2.71-0.55
			c-0.78-0.37-1.43-0.87-1.95-1.5s-0.91-1.36-1.17-2.17s-0.39-1.67-0.39-2.56C92.44,5.92,92.57,5.07,92.83,4.25z M94.42,8.74
			c0.17,0.64,0.44,1.21,0.8,1.72c0.36,0.51,0.83,0.92,1.4,1.23c0.57,0.31,1.25,0.46,2.04,0.46c0.79,0,1.47-0.15,2.04-0.46
			c0.57-0.31,1.04-0.72,1.4-1.23c0.36-0.51,0.63-1.08,0.8-1.72s0.25-1.28,0.25-1.94s-0.08-1.3-0.25-1.94s-0.44-1.21-0.8-1.72
			c-0.36-0.51-0.83-0.92-1.4-1.23c-0.57-0.31-1.25-0.46-2.04-0.46c-0.79,0-1.47,0.15-2.04,0.46c-0.57,0.31-1.04,0.72-1.4,1.23
			c-0.36,0.51-0.63,1.08-0.8,1.72c-0.17,0.64-0.25,1.28-0.25,1.94S94.25,8.1,94.42,8.74z"/>
		<path d="M108.81,0.31l6.84,10.53h0.04V0.31h1.64V13.3h-1.89l-6.79-10.42h-0.04V13.3h-1.64V0.31H108.81z"/>
		<path d="M125.57,0.31l5.08,12.99h-1.91l-1.42-3.91h-5.49l-1.46,3.91h-1.76l5.06-12.99H125.57z M126.77,7.93l-2.17-6.06h-0.04
			l-2.2,6.06H126.77z"/>
		<path d="M133.64,0.31v11.53h6.88v1.46h-8.61V0.31H133.64z"/>
	</g>
	<g>
		<path d="M25.77,117.35v1.46h-6.8v4.13h5.97v1.46h-5.97v5.95h-1.73v-12.99H25.77z"/>
		<path d="M36.65,117.35v1.46h-7.24v4.13h6.75v1.46h-6.75v4.49h7.3v1.46h-9.02v-12.99H36.65z"/>
		<path d="M43.26,117.35c2,0,3.54,0.51,4.62,1.53s1.62,2.57,1.62,4.66c0,1.09-0.12,2.06-0.36,2.9s-0.62,1.55-1.13,2.13
			s-1.16,1.02-1.95,1.32c-0.79,0.3-1.72,0.46-2.8,0.46H38.8v-12.99H43.26z M43.4,128.89c0.19,0,0.44-0.02,0.73-0.05
			c0.29-0.03,0.6-0.1,0.93-0.22c0.33-0.11,0.65-0.28,0.97-0.5c0.32-0.22,0.61-0.52,0.86-0.89c0.25-0.38,0.46-0.85,0.63-1.41
			c0.16-0.56,0.25-1.25,0.25-2.05c0-0.78-0.08-1.47-0.23-2.08c-0.15-0.61-0.4-1.13-0.75-1.56s-0.79-0.76-1.34-0.98
			c-0.55-0.22-1.22-0.34-2.02-0.34h-2.91v10.08H43.4z"/>
		<path d="M60.58,117.35v1.46h-7.24v4.13h6.75v1.46h-6.75v4.49h7.3v1.46h-9.02v-12.99H60.58z"/>
		<path d="M68.84,117.35c1.24,0,2.2,0.3,2.9,0.91c0.7,0.61,1.05,1.44,1.05,2.49c0,0.79-0.18,1.48-0.54,2.07
			c-0.36,0.59-0.93,1-1.72,1.22v0.04c0.38,0.07,0.68,0.19,0.92,0.36c0.24,0.17,0.42,0.37,0.56,0.61s0.24,0.5,0.31,0.79
			c0.07,0.29,0.12,0.59,0.15,0.91c0.02,0.32,0.04,0.64,0.05,0.96c0.01,0.33,0.04,0.65,0.09,0.96c0.05,0.32,0.12,0.62,0.21,0.9
			s0.23,0.54,0.41,0.75h-1.93c-0.12-0.13-0.2-0.32-0.25-0.55s-0.07-0.49-0.08-0.77c-0.01-0.28-0.02-0.59-0.04-0.92
			c-0.01-0.33-0.05-0.65-0.11-0.96c-0.05-0.32-0.11-0.62-0.18-0.9s-0.19-0.53-0.35-0.75c-0.16-0.21-0.36-0.38-0.62-0.51
			c-0.25-0.13-0.59-0.19-1.02-0.19h-4.22v5.55h-1.73v-12.99H68.84z M69.2,123.25c0.36-0.06,0.68-0.18,0.96-0.35s0.49-0.41,0.66-0.71
			c0.16-0.3,0.25-0.68,0.25-1.16c0-0.65-0.18-1.19-0.55-1.6s-0.95-0.62-1.76-0.62h-4.29v4.53h3.6
			C68.46,123.34,68.84,123.31,69.2,123.25z"/>
		<path d="M80.63,117.35l5.08,12.99h-1.91l-1.42-3.91h-5.49l-1.46,3.91h-1.76l5.06-12.99H80.63z M81.83,124.98l-2.17-6.06h-0.04
			l-2.2,6.06H81.83z"/>
		<path d="M83.92,118.81v-1.46h10.39v1.46h-4.33v11.54h-1.73v-11.54H83.92z"/>
		<path d="M97.55,117.35v12.99h-1.73v-12.99H97.55z"/>
		<path d="M100.12,121.29c0.26-0.82,0.65-1.54,1.17-2.17s1.17-1.13,1.95-1.51c0.78-0.38,1.68-0.56,2.71-0.56
			c1.03,0,1.93,0.19,2.71,0.56s1.43,0.88,1.95,1.51s0.91,1.36,1.17,2.17c0.26,0.82,0.39,1.67,0.39,2.56c0,0.89-0.13,1.74-0.39,2.56
			c-0.26,0.82-0.65,1.54-1.17,2.17s-1.17,1.13-1.95,1.5s-1.68,0.55-2.71,0.55c-1.03,0-1.93-0.18-2.71-0.55
			c-0.78-0.37-1.43-0.87-1.95-1.5s-0.91-1.36-1.17-2.17c-0.26-0.82-0.39-1.67-0.39-2.56C99.73,122.97,99.86,122.11,100.12,121.29z
			 M101.71,125.79c0.17,0.64,0.44,1.21,0.8,1.72c0.36,0.51,0.83,0.92,1.4,1.23c0.57,0.31,1.25,0.46,2.04,0.46
			c0.79,0,1.47-0.15,2.04-0.46c0.57-0.31,1.04-0.72,1.4-1.23c0.36-0.51,0.63-1.08,0.8-1.72s0.25-1.28,0.25-1.94s-0.08-1.3-0.25-1.94
			s-0.44-1.21-0.8-1.72c-0.36-0.51-0.83-0.92-1.4-1.23s-1.25-0.46-2.04-0.46c-0.79,0-1.47,0.15-2.04,0.46s-1.04,0.72-1.4,1.23
			c-0.36,0.51-0.63,1.08-0.8,1.72c-0.17,0.64-0.25,1.28-0.25,1.94S101.54,125.15,101.71,125.79z"/>
		<path d="M116.11,117.35l6.84,10.53h0.04v-10.53h1.64v12.99h-1.89l-6.79-10.42h-0.04v10.42h-1.64v-12.99H116.11z"/>
	</g>
</g>
</svg>
