<svg id="Layer_1" data-name="Layer 1" xmlns="http://www.w3.org/2000/svg" viewBox="0 0 100 100"><title>icon</title><path d="M74,87H54V30a.43.43,0,0,0,0-.11,8,8,0,1,0-8,0s0,.07,0,.11V87H26a4,4,0,1,0,0,8H74a4,4,0,0,0,0-8Z"/><path d="M63.41,36.34c1.12,1.21,3.67.66,5.09-1.57a21.93,21.93,0,0,0,0-23.64c-1.42-2.22-4-2.78-5.09-1.56s-.92,3.27,0,4.8a16,16,0,0,1,0,17.17C62.49,33.06,62.28,35.11,63.41,36.34Z"/><path d="M80.81,6.91c-1.44-2-3.86-2.45-5-1.25s-.95,3.26.12,4.76a21.46,21.46,0,0,1,0,25.07C74.87,37,74.68,39,75.82,40.24s3.55.76,5-1.24A27.46,27.46,0,0,0,80.81,6.91Z"/><path d="M36.35,36.34c1.13-1.23.93-3.28,0-4.8a16,16,0,0,1,0-17.17c1-1.53,1.16-3.58,0-4.8s-3.66-.66-5.09,1.56a22,22,0,0,0,0,23.64C32.68,37,35.24,37.55,36.35,36.34Z"/><path d="M24.14,40.24C25.28,39,25.09,37,24,35.49a21.46,21.46,0,0,1,0-25.07c1.06-1.5,1.25-3.55.11-4.76s-3.55-.75-5,1.25a27.49,27.49,0,0,0,0,32.09C20.59,41,23,41.45,24.14,40.24Z"/></svg>