<svg id="Layer_1" data-name="Layer 1" xmlns="http://www.w3.org/2000/svg" viewBox="0 0 100 100"><title>icon</title><path d="M57.5,10.62a5.63,5.63,0,0,0-11.25,0v5.63H57.5Z"/><path d="M46.25,53.75H57.5V50h9.38a15,15,0,0,0,0-30H40a7.52,7.52,0,0,0-5-1.88H25.62a7.5,7.5,0,0,0,0,15H35a7.51,7.51,0,0,0,5-1.87H66.88a3.75,3.75,0,0,1,0,7.5H57.5V35H46.25v3.75H40.62a15,15,0,1,0,0,30H59.38a3.75,3.75,0,0,1,0,7.5H57.5V72.5H46.25v3.75H42.5a5.63,5.63,0,0,0,0,11.25h3.75v1.88A6.4,6.4,0,0,0,46.92,92a1.76,1.76,0,0,0,.23.37,1.73,1.73,0,0,0,.19.28,5.38,5.38,0,0,0,2.55,1.93.82.82,0,0,0,.32.12,1.9,1.9,0,0,0,.39.11,1.52,1.52,0,0,0,.32.06,5.11,5.11,0,0,0,1.91,0,1.52,1.52,0,0,0,.32-.06,5.54,5.54,0,0,0,3.26-2.16,1.73,1.73,0,0,0,.19-.28,1.76,1.76,0,0,0,.23-.37,6.4,6.4,0,0,0,.67-2.66V87.5h1.88a15,15,0,0,0,0-30H40.62a3.75,3.75,0,0,1,0-7.5h5.63ZM25.62,25.62a1.87,1.87,0,1,1,1.88-1.87A1.87,1.87,0,0,1,25.62,25.62Z"/></svg>