<svg id="Layer_1" data-name="Layer 1" xmlns="http://www.w3.org/2000/svg" viewBox="0 0 100 100"><title>icon</title><path d="M53.75,84.47a2.12,2.12,0,0,0-.1-.36,3.18,3.18,0,0,0-.1-.33c0-.08-.11-.13-.15-.2a1.56,1.56,0,0,0-.31-.37v0l-6.86-5.67V48.59l5.66,1.35V37.09l-5.66-2.66V19A5.61,5.61,0,0,0,35,19v15.4l-27.72,13A3.66,3.66,0,0,0,5.52,49a.89.89,0,0,0-.15.27,1.38,1.38,0,0,0-.1.22,1.21,1.21,0,0,0-.11.32,3.59,3.59,0,0,0-.07,1.9s0,0,0,0a1,1,0,0,0,.11.34,1.26,1.26,0,0,0,.15.38,3.59,3.59,0,0,0,1.5,1.65.84.84,0,0,0,.26.15,1.15,1.15,0,0,0,.23.1,1,1,0,0,0,.32.11,3.6,3.6,0,0,0,1.09.17,3.81,3.81,0,0,0,.8-.1h.06l25.39-6V77.53l-6.82,5.66s0,0,0,0a2.06,2.06,0,0,0-.29.37,1.56,1.56,0,0,0-.16.2,3,3,0,0,0-.1.32,2.54,2.54,0,0,0-.1.37,1.94,1.94,0,0,0,0,.24,2,2,0,0,0,.06.49s0,0,0,0a2.14,2.14,0,0,0,.17.3c.06.1.09.21.16.31h0a2.78,2.78,0,0,0,.33.27c.09.06.16.14.25.19s.12,0,.18.06a2.27,2.27,0,0,0,.51.14l.2,0a1.81,1.81,0,0,0,.52-.06h0l10.67-3.5,10.62,3.48h0l0,0a2,2,0,0,0,.59.09,1.87,1.87,0,0,0,.7-.15l.17-.09a1.84,1.84,0,0,0,.49-.38.24.24,0,0,0,.08-.06l0,0a1.73,1.73,0,0,0,.32-.58s0,0,0,0a2.07,2.07,0,0,0,.06-.5A1.77,1.77,0,0,1,53.75,84.47Z"/><path d="M61.65,44.52a12.62,12.62,0,0,1,3.88-1h0a9.7,9.7,0,0,1,1.33-.08H83.76a13.09,13.09,0,0,1,9.38,4V35.93a3.74,3.74,0,0,0-3.75-3.75H61.26a3.74,3.74,0,0,0-3.75,3.75V47.39a12.49,12.49,0,0,1,3.75-2.68A3.49,3.49,0,0,1,61.65,44.52Z"/><path d="M93.14,62.18V56.56a9.38,9.38,0,0,0-9.37-9.38H66.89a9.3,9.3,0,0,0-5.63,1.88,3.41,3.41,0,0,0-.56.47,9.23,9.23,0,0,0-1.77,2.06,9.39,9.39,0,0,0-1.42,5v5.63a1.88,1.88,0,0,0-1.88,1.87v15a1.88,1.88,0,0,0,1.88,1.87h1.87v2.82a2.82,2.82,0,1,0,5.63,0V80.94H85.64v2.82a2.82,2.82,0,1,0,5.63,0V80.94h1.86A1.87,1.87,0,0,0,95,79.07v-15A1.89,1.89,0,0,0,93.14,62.18Zm-30-5.62a3.76,3.76,0,0,1,2.25-3.43h0a3.51,3.51,0,0,1,1.48-.32H83.76a3.77,3.77,0,0,1,3.64,2.85,3.26,3.26,0,0,1,.12.9v5.62H63.14V56.56Zm.94,16.88a2.82,2.82,0,1,1,2.82-2.82A2.81,2.81,0,0,1,64.07,73.44Zm22.51,0a2.82,2.82,0,1,1,2.81-2.82A2.81,2.81,0,0,1,86.58,73.44Z"/></svg>