<svg id="Layer_1" data-name="Layer 1" xmlns="http://www.w3.org/2000/svg" viewBox="0 0 100 100"><title>icon</title><path d="M64.91,19.49,32.29,36.84a2.14,2.14,0,0,0-1.09,1.88V61.28a2.14,2.14,0,0,0,1.09,1.88L64.91,80.51a4,4,0,0,0,5.7-3.75V23.24A4,4,0,0,0,64.91,19.49Z"/><path d="M25.58,37.8H10.63A5.63,5.63,0,0,0,5,43.43V56.57a5.63,5.63,0,0,0,5.63,5.63h1.81V74.39a4.69,4.69,0,0,0,9.38,0V62.2h3.76a1.88,1.88,0,0,0,1.87-1.88V39.68A1.88,1.88,0,0,0,25.58,37.8Z"/><path d="M92.19,47.19H79.05a2.81,2.81,0,0,0,0,5.62H92.19a2.81,2.81,0,0,0,0-5.62Z"/><path d="M80.34,39.3l11.38-6.56a2.82,2.82,0,1,0-2.82-4.88L77.53,34.43a2.81,2.81,0,0,0,2.81,4.87Z"/><path d="M91.72,67.26,80.34,60.7a2.81,2.81,0,1,0-2.81,4.87L88.9,72.14a2.82,2.82,0,1,0,2.82-4.88Z"/></svg>