<svg id="Layer_1" data-name="Layer 1" xmlns="http://www.w3.org/2000/svg" viewBox="0 0 100 100"><title>icon</title><path d="M89.38,14.38A5.65,5.65,0,0,0,83.75,20V50l-9,9.08a1.83,1.83,0,0,1-3,.33,2.35,2.35,0,0,1,0-3.28l7.61-7.74a4,4,0,0,0,0-5.62,3.87,3.87,0,0,0-5.53,0l-14.75,15a12,12,0,0,0-3.4,9.1h0V95H72.5V76.9a11.54,11.54,0,0,0,3.12-2.27l17.76-18a5.65,5.65,0,0,0,1.62-4V20A5.65,5.65,0,0,0,89.38,14.38Z"/><path d="M40.94,57.78l-14.75-15a3.87,3.87,0,0,0-5.53,0,4,4,0,0,0,0,5.62l7.61,7.74a2.35,2.35,0,0,1,0,3.28,2.26,2.26,0,0,1-3.22,0L16.25,50V20A5.63,5.63,0,0,0,5,20V52.62a5.65,5.65,0,0,0,1.62,4l17.76,18A11.54,11.54,0,0,0,27.5,76.9V95H44.38V66.88h0A12,12,0,0,0,40.94,57.78Z"/><circle cx="50" cy="21.88" r="16.88"/></svg>