<?xml version="1.0" encoding="utf-8"?>
<!-- Generator: Adobe Illustrator 24.0.0, SVG Export Plug-In . SVG Version: 6.00 Build 0)  -->
<svg version="1.1" id="Layer_1" xmlns="http://www.w3.org/2000/svg" xmlns:xlink="http://www.w3.org/1999/xlink" x="0px" y="0px"
	 viewBox="0 0 100 100" style="enable-background:new 0 0 100 100;" xml:space="preserve">
<style type="text/css">
	.st0{fill:none;}
</style>
<g>
	<path d="M84.4,7.5H15.6c-4.47,0-8.1,3.62-8.1,8.1V84.4c0,4.47,3.62,8.1,8.1,8.1H84.4c4.47,0,8.1-3.62,8.1-8.1V15.6
		C92.5,11.12,88.88,7.5,84.4,7.5z M43.93,67.2c0,1.4-0.95,2.61-2.31,2.95c-0.24,0.06-0.49,0.08-0.73,0.08
		c-1.11,0-2.15-0.61-2.69-1.62l-12.49-23.6V67.2c0,1.68-1.36,3.04-3.04,3.04s-3.04-1.36-3.04-3.04V32.8c0-1.4,0.95-2.61,2.31-2.95
		c1.34-0.32,2.75,0.3,3.42,1.54l12.49,23.6V32.8c0-1.68,1.36-3.04,3.04-3.04c1.68,0,3.04,1.36,3.04,3.04V67.2z M65.18,45.95
		c1.68,0,3.04,1.36,3.04,3.04c0,1.68-1.36,3.04-3.04,3.04h-9.11V67.2c0,1.68-1.36,3.04-3.04,3.04c-1.68,0-3.04-1.36-3.04-3.04V32.8
		c0-1.68,1.36-3.04,3.04-3.04h12.14c1.68,0,3.04,1.36,3.04,3.04c0,1.68-1.36,3.04-3.04,3.04h-9.11v10.12H65.18z M80.36,67.2
		c0,1.68-1.36,3.04-3.04,3.04c-1.68,0-3.04-1.36-3.04-3.04V32.8c0-1.68,1.36-3.04,3.04-3.04c1.68,0,3.04,1.36,3.04,3.04V67.2z"/>
</g>
</svg>
