<svg id="Layer_1" data-name="Layer 1" xmlns="http://www.w3.org/2000/svg" viewBox="0 0 100 100"><title>icon</title><path d="M81.88,36.88H18.12a31.88,31.88,0,0,1,63.76,0ZM71.49,41.41,50,62,28.51,41.41a2.81,2.81,0,0,0-3.9,4.06L48.05,68l.06,0a2.9,2.9,0,0,0,.84.53l.06,0a2.67,2.67,0,0,0,2,0l.06,0a2.9,2.9,0,0,0,.84-.53L52,68l23.44-22.5a2.81,2.81,0,0,0-3.9-4.06ZM59.38,72.5H40.63a1.88,1.88,0,0,0-1.88,1.88V93.12A1.88,1.88,0,0,0,40.63,95H59.38a1.88,1.88,0,0,0,1.87-1.88V74.38A1.88,1.88,0,0,0,59.38,72.5Z"/></svg>