<svg id="Layer_1" data-name="Layer 1" xmlns="http://www.w3.org/2000/svg" viewBox="0 0 100 100"><title>icon</title><path d="M82.56,11.38,50.41,5.05a1.89,1.89,0,0,0-.82,0L17.44,11.38a2.13,2.13,0,0,0-1.74,2.1V56.74C15.7,77.88,31.35,95,50,95S84.3,77.88,84.3,56.74V13.48A2.13,2.13,0,0,0,82.56,11.38ZM64.32,50.61l-1.5,1.48-12,12.58a1.08,1.08,0,0,1-1.54,0l-12-12.58-1.5-1.48c-3.62-3.6-3.88-9.74-.13-13.23A9.08,9.08,0,0,1,41.75,35a9.2,9.2,0,0,1,6.41,2.61L50,39.27l1.84-1.7A9.2,9.2,0,0,1,58.25,35a9.08,9.08,0,0,1,6.2,2.42C68.2,40.87,67.94,47,64.32,50.61Z"/></svg>