<svg id="Layer_1" data-name="Layer 1" xmlns="http://www.w3.org/2000/svg" viewBox="0 0 100 100"><title>icon</title><path d="M89.78,51.82H21.51a1.62,1.62,0,0,0-1.6,1.62v4H84a1.77,1.77,0,0,1,1.78,1.79V85.67h4a1.59,1.59,0,0,0,1.59-1.59V53.44A1.61,1.61,0,0,0,89.78,51.82Z"/><path d="M80.37,61.23H12.1a1.59,1.59,0,0,0-1.59,1.59V93.46a1.61,1.61,0,0,0,1.59,1.62H80.37A1.62,1.62,0,0,0,82,93.46V62.82A1.59,1.59,0,0,0,80.37,61.23ZM21.79,81.91a3.76,3.76,0,1,1,3.76-3.76A3.77,3.77,0,0,1,21.79,81.91Zm24.45,7.53A11.29,11.29,0,1,1,57.52,78.15,11.3,11.3,0,0,1,46.24,89.44Zm24.45-7.53a3.76,3.76,0,1,1,3.76-3.76A3.77,3.77,0,0,1,70.69,81.91Z"/><path d="M44.15,27.79l-4.68-1.25A9.41,9.41,0,0,0,28,33.19l-.33,1.24,4.68,1.25A9.41,9.41,0,0,0,43.82,29Z"/><path d="M43.1,38.58l4.68,1.25A9.41,9.41,0,0,0,59.3,33.18l.33-1.24L55,30.69a9.4,9.4,0,0,0-11.52,6.65Z"/><path d="M58.58,42.72,63.26,44a9.42,9.42,0,0,0,11.52-6.65l.33-1.24-4.68-1.25a9.39,9.39,0,0,0-11.51,6.65Z"/><path d="M40.85,21.38l4.68,1.25.33-1.23A9.4,9.4,0,0,0,39.21,9.88L34.54,8.63,34.2,9.86A9.41,9.41,0,0,0,40.85,21.38Z"/><path d="M56.33,25.53,61,26.78l.33-1.24A9.39,9.39,0,0,0,54.69,14L50,12.77,49.68,14A9.42,9.42,0,0,0,56.33,25.53Z"/><path d="M71.81,29.68l4.68,1.25.33-1.24a9.39,9.39,0,0,0-6.64-11.51L65.5,16.92l-.33,1.24A9.4,9.4,0,0,0,71.81,29.68Z"/><path d="M91.28,37.66a2.66,2.66,0,0,0-1.89-3.27l-9.46-2.54L78.55,37,88,39.55A2.67,2.67,0,0,0,91.28,37.66Z"/><path d="M16.1,25.81A2.67,2.67,0,1,0,14.72,31l6.88,1.84A2.67,2.67,0,1,0,23,27.65Z"/><path d="M20.25,10.33l6.88,1.84A2.67,2.67,0,0,0,28.52,7L21.63,5.17a2.67,2.67,0,0,0-1.38,5.16Z"/><path d="M29.53,23.88a2.67,2.67,0,0,0,1.38-5.16L12,13.65a2.67,2.67,0,1,0-1.38,5.16Z"/></svg>