<svg id="Layer_1" data-name="Layer 1" xmlns="http://www.w3.org/2000/svg" viewBox="0 0 100 100"><title>icon</title><path d="M15.65,63.44C13.31,66.61,5,78.35,5,83.71a11.25,11.25,0,1,0,22.5,0c0-5.36-8.32-17.09-10.65-20.27A.73.73,0,0,0,15.65,63.44Z"/><path d="M91.25,6.88H85.62a3.75,3.75,0,0,0-3.74,3.74V20H59.38V10.62h8.43a2.81,2.81,0,0,0,0-5.62H41.57a2.81,2.81,0,0,0,0,5.62H50V20H31A22.25,22.25,0,0,0,8.75,42.22v4H6.88A1.88,1.88,0,0,0,5,48.12v5.63a1.88,1.88,0,0,0,1.88,1.87H25.62a1.88,1.88,0,0,0,1.88-1.87V48.12a1.88,1.88,0,0,0-1.88-1.87H23.75v-4A7.23,7.23,0,0,1,31,35h50.9v9.38a3.75,3.75,0,0,0,3.74,3.74h5.63A3.75,3.75,0,0,0,95,44.38V10.62A3.75,3.75,0,0,0,91.25,6.88Z"/></svg>