<svg id="Layer_1" data-name="Layer 1" xmlns="http://www.w3.org/2000/svg" viewBox="0 0 100 100"><title>icon</title><path d="M46.33,81.89v9.36a3.75,3.75,0,0,0,7.5,0V81.9l-3.75-3.77Z"/><circle cx="50.08" cy="10.63" r="5.63"/><path d="M42.6,46.25a3.71,3.71,0,0,0-3.69-3.75,7.55,7.55,0,0,0-7,4.71,7.66,7.66,0,0,0,1.65,8.32l8.63,8.68,4.14-4.16,1.11-1.13L46.33,57.8l-7.52-7.58,0-.22A3.76,3.76,0,0,0,42.6,46.25Z"/><path d="M58,69.54,53.83,73.7l-1.1,1.13L53.83,76l7.52,7.58,0,.22a3.76,3.76,0,0,0-3.75,3.75,3.72,3.72,0,0,0,3.7,3.75,7.64,7.64,0,0,0,5.34-13Z"/><path d="M61.26,42.5a3.72,3.72,0,0,0-3.7,3.75A3.76,3.76,0,0,0,61.31,50l0,.22L53.83,57.8l-1.1,1.12L51.4,60.26l-1.31,1.31-3.75,3.79-1.5,1.52-1.33,1.33L42.2,69.54l-8.63,8.68a7.66,7.66,0,0,0-1.65,8.32,7.57,7.57,0,0,0,7,4.71,3.71,3.71,0,0,0,3.69-3.75,3.76,3.76,0,0,0-3.75-3.75l0-.23L46.33,76l1.11-1.13,1.33-1.33,1.31-1.31,3.75-3.79,1.5-1.51,1.33-1.34L58,64.21l8.62-8.68a7.64,7.64,0,0,0,1.65-8.32A7.53,7.53,0,0,0,61.26,42.5Z"/><path d="M92.65,30v0L66.22,14.85a2.34,2.34,0,0,0-2.11-.37l-14,7.4-14-7.4a2.35,2.35,0,0,0-2.12.36L7.51,30v0a4.68,4.68,0,1,0,6.94,4.08,4.69,4.69,0,0,0,9.38,0,4.69,4.69,0,1,0,9.38,0,4.68,4.68,0,1,0,9.36,0,4.7,4.7,0,0,0,3.75,4.6v13.2l3.75,3.77,3.75-3.77V38.66a4.7,4.7,0,0,0,3.75-4.6,4.69,4.69,0,1,0,9.38,0,4.69,4.69,0,1,0,9.38,0,4.69,4.69,0,0,0,9.38,0A4.69,4.69,0,1,0,92.65,30Z"/></svg>