<svg id="Layer_1" data-name="Layer 1" xmlns="http://www.w3.org/2000/svg" viewBox="0 0 100 100"><title>icon</title><path d="M81.12,52.76a5.45,5.45,0,0,0,0-5.52,36,36,0,0,0-62.24,0,5.45,5.45,0,0,0,0,5.52,36,36,0,0,0,62.24,0ZM50,61.25A11.25,11.25,0,1,1,61.25,50,11.25,11.25,0,0,1,50,61.25Z"/><path d="M73.44,29.38H92.19a2.81,2.81,0,1,0,0-5.62h-12l13.9-13.9a2.81,2.81,0,1,0-4-4l-13.9,13.9v-12a2.81,2.81,0,0,0-5.62,0V26.56A2.8,2.8,0,0,0,73.44,29.38Z"/><path d="M5,26.56a2.81,2.81,0,0,0,2.81,2.81H26.56a2.81,2.81,0,0,0,2.81-2.81V7.81a2.81,2.81,0,0,0-5.62,0v12L9.85,5.87a2.81,2.81,0,0,0-4,4l13.89,13.9h-12A2.81,2.81,0,0,0,5,26.56Z"/><path d="M95,73.44a2.81,2.81,0,0,0-2.81-2.81H73.44a2.81,2.81,0,0,0-2.81,2.81V92.19a2.81,2.81,0,0,0,5.62,0v-12l13.9,13.9a2.81,2.81,0,0,0,4-4l-13.9-13.9h12A2.83,2.83,0,0,0,95,73.44Z"/><path d="M26.56,70.62H7.81a2.81,2.81,0,0,0,0,5.62h12L5.87,90.14a2.81,2.81,0,0,0,4,4l13.9-13.9v12a2.81,2.81,0,0,0,5.62,0V73.43A2.81,2.81,0,0,0,26.56,70.62Z"/></svg>