<?xml version="1.0" encoding="utf-8"?>
<!-- Generator: Adobe Illustrator 24.0.0, SVG Export Plug-In . SVG Version: 6.00 Build 0)  -->
<svg version="1.1" id="Layer_1" xmlns="http://www.w3.org/2000/svg" xmlns:xlink="http://www.w3.org/1999/xlink" x="0px" y="0px"
	 viewBox="0 0 100 100" style="enable-background:new 0 0 100 100;" xml:space="preserve">
<style type="text/css">
	.st0{fill:none;}
</style>
<g>
	<path d="M20.91,68.18L7.45,81.64c-3,3-3,7.91,0,10.91c3,3,7.91,3,10.91,0l13.46-13.46C27.59,76.11,23.89,72.41,20.91,68.18z"/>
	<path d="M57.7,4.8c-20.72,0-37.5,16.78-37.5,37.5s16.78,37.5,37.5,37.5s37.5-16.78,37.5-37.5S78.42,4.8,57.7,4.8z M78.33,61.39
		c-3.06,3.32-6.9,5.91-11.25,7.43c-1.22,0.43-2.46,0.79-3.75,1.05c-1.82,0.37-3.69,0.56-5.62,0.56s-3.81-0.19-5.62-0.56
		c-1.29-0.26-2.53-0.62-3.75-1.05c-4.35-1.52-8.19-4.11-11.25-7.43c-4.67-5.01-7.5-11.72-7.5-19.09c0-15.53,12.6-28.12,28.12-28.12
		s28.12,12.6,28.12,28.12C85.83,49.67,82.99,56.38,78.33,61.39z"/>
	<path d="M79.1,39.65L67.85,28.4c-1.46-1.46-3.84-1.46-5.3,0c-1.46,1.46-1.46,3.84,0,5.3l4.85,4.85H38.95
		c-2.07,0-3.75,1.68-3.75,3.75s1.68,3.75,3.75,3.75H67.4l-4.85,4.85c-1.46,1.46-1.46,3.84,0,5.3c0.73,0.73,1.69,1.1,2.65,1.1
		s1.92-0.37,2.65-1.1L79.1,44.95C80.57,43.49,80.57,41.11,79.1,39.65z"/>
</g>
</svg>
