<svg id="Layer_1" data-name="Layer 1" xmlns="http://www.w3.org/2000/svg" viewBox="0 0 100 100"><title>icon</title><path d="M20.91,68.18,7.45,81.64A7.71,7.71,0,0,0,18.36,92.55L31.83,79.09A45.08,45.08,0,0,1,20.91,68.18Z"/><path d="M46.45,42.3H39a1.88,1.88,0,0,0-1.87,1.88v9.26A23.58,23.58,0,0,0,48.33,63.79V44.18A1.88,1.88,0,0,0,46.45,42.3Z"/><path d="M76.45,31.05H69a1.88,1.88,0,0,0-1.87,1.88V63.79A23.62,23.62,0,0,0,78.33,53.44V32.93A1.88,1.88,0,0,0,76.45,31.05Z"/><path d="M61.45,36.68H54a1.87,1.87,0,0,0-1.87,1.87V65.06a23.61,23.61,0,0,0,11.25,0V38.55A1.88,1.88,0,0,0,61.45,36.68Z"/><path d="M57.7,4.8A37.5,37.5,0,1,0,95.2,42.3,37.49,37.49,0,0,0,57.7,4.8ZM78.33,61.39a28.05,28.05,0,0,1-20.63,9,27.33,27.33,0,0,1-5.62-.57,26.93,26.93,0,0,1-3.75-1A28.2,28.2,0,0,1,29.58,42.3,28.13,28.13,0,1,1,78.33,61.39Z"/></svg>