<svg id="Layer_1" data-name="Layer 1" xmlns="http://www.w3.org/2000/svg" viewBox="0 0 100 100"><title>icon</title><path d="M23.84,58.38l3.54-3.54a3.74,3.74,0,0,0,1-2.08,4.05,4.05,0,0,0-1.15-3.5,4.18,4.18,0,0,0-2-1.09,3.73,3.73,0,0,0-.94-.12,3.81,3.81,0,0,0-2.68,1.1l-5.4,5.4L12,58.87a4,4,0,0,0,.11,5.58A4.12,4.12,0,0,0,15,65.66a3.84,3.84,0,0,0,2.68-1.09l6.19-6.19Z"/><path d="M51.11,26.78l-.55.55L43.09,34.8l-.27.28L39.9,38a7.75,7.75,0,0,1-5.53,2.27c-.24,0-.47,0-.71,0l-.25,0A7.8,7.8,0,0,1,28.83,26.9L45.48,10.27c.41-.41.84-.82,1.27-1.2A27.39,27.39,0,0,0,13,51.76l.24.24,5.65-5.66a7.65,7.65,0,0,1,5.46-2.23,7.82,7.82,0,0,1,3.95,1,7.57,7.57,0,0,1,1.74,1.31,8.14,8.14,0,0,1,2.1,3.66A8.86,8.86,0,0,1,32.41,52a7,7,0,0,1-.27,2.19,6.78,6.78,0,0,1,2-.28,8,8,0,0,1,8.05,7.87A6.69,6.69,0,0,1,41.92,64a6.85,6.85,0,0,1,2-.28,8,8,0,0,1,8,7.87,7,7,0,0,1-.27,2.19,6.78,6.78,0,0,1,2-.28,8,8,0,0,1,8.05,7.87,7.59,7.59,0,0,1-.71,3.44,5.9,5.9,0,0,0,2.25.45,5.87,5.87,0,0,0,5.13-8.72,5.85,5.85,0,0,0,8.06-8.08,5.72,5.72,0,0,0,2.85.76,5.87,5.87,0,0,0,4.15-10Z"/><path d="M53.71,77.39a3.05,3.05,0,0,0-.6.06,3.82,3.82,0,0,0-2.08,1l-9.72,9.72a4,4,0,0,0,.12,5.58A4.11,4.11,0,0,0,44.32,95,3.83,3.83,0,0,0,47,93.91l9.73-9.73a3.71,3.71,0,0,0,1-2.07,4,4,0,0,0-1.15-3.5A4.13,4.13,0,0,0,53.71,77.39Z"/><path d="M38.2,62.55A4.07,4.07,0,0,0,37,59.05a4.12,4.12,0,0,0-2.89-1.22,3.15,3.15,0,0,0-.61.06,3.83,3.83,0,0,0-2.07,1l-9.73,9.72a4,4,0,0,0,.12,5.58,4.11,4.11,0,0,0,2.89,1.21,3.83,3.83,0,0,0,2.68-1.09l9.73-9.73A3.76,3.76,0,0,0,38.2,62.55Z"/><path d="M48,72.33a4,4,0,0,0-1.15-3.5,4.13,4.13,0,0,0-2.9-1.22,3.05,3.05,0,0,0-.6.06,3.82,3.82,0,0,0-2.08,1l-9.72,9.72A4,4,0,0,0,31.64,84a4.12,4.12,0,0,0,2.9,1.21,3.84,3.84,0,0,0,2.68-1.09l9.72-9.73A3.76,3.76,0,0,0,48,72.33Z"/><path d="M87,13a27.36,27.36,0,0,0-37-1.61c-.61.51-1.2,1-1.76,1.61L31.61,29.66a3.91,3.91,0,0,0,0,5.53,3.85,3.85,0,0,0,2.76,1.14,3.89,3.89,0,0,0,2.78-1.14L51.57,20.77l5,5,28.09,28.1A25.69,25.69,0,0,0,87,51.76,27.39,27.39,0,0,0,87,13Z"/></svg>