<svg id="Layer_1" data-name="Layer 1" xmlns="http://www.w3.org/2000/svg" viewBox="0 0 100 100"><title>icon</title><path d="M91.31,31.25H8.69a1.81,1.81,0,0,0-1.82,1.82V66.93a1.81,1.81,0,0,0,1.82,1.82H91.31a1.81,1.81,0,0,0,1.81-1.82V33.07A1.81,1.81,0,0,0,91.31,31.25ZM20,55.62A5.62,5.62,0,1,1,25.62,50,5.62,5.62,0,0,1,20,55.62Zm30,7.5A13.12,13.12,0,1,1,63.12,50,13.11,13.11,0,0,1,50,63.12Zm30-7.5A5.62,5.62,0,1,1,85.62,50,5.62,5.62,0,0,1,80,55.62Z"/><path d="M88.44,82H14.6l2.62-2.62a2.81,2.81,0,1,0-4-4L5.82,82.78a3,3,0,0,0-.61.92.09.09,0,0,1,0,0,2.65,2.65,0,0,0-.2,1,2.74,2.74,0,0,0,.2,1,.06.06,0,0,1,0,0,2.9,2.9,0,0,0,.61.92l7.42,7.42a2.81,2.81,0,0,0,4-4L14.6,87.58H88.44a2.81,2.81,0,0,0,0-5.62Z"/><path d="M94.8,14.2a.06.06,0,0,1,0,0,2.9,2.9,0,0,0-.61-.92L86.76,5.82a2.81,2.81,0,0,0-4,4l2.62,2.62H11.56a2.81,2.81,0,0,0,0,5.62H85.4l-2.62,2.62a2.81,2.81,0,0,0,4,4l7.42-7.41a3,3,0,0,0,.61-.92.09.09,0,0,1,0-.05,2.65,2.65,0,0,0,.2-1A2.74,2.74,0,0,0,94.8,14.2Z"/></svg>