<svg id="Layer_1" data-name="Layer 1" xmlns="http://www.w3.org/2000/svg" viewBox="0 0 100 100"><title>icon</title><path d="M50,38.74c-11.23,0-19.69,7.66-19.69,17.81a2.81,2.81,0,0,0,5.62,0,11.68,11.68,0,0,1,6.56-10.4v17h0V92.19a2.81,2.81,0,0,0,5.62,0V68.75h3.75V92.19a2.81,2.81,0,1,0,5.62,0v-46A11.68,11.68,0,0,1,64,56.55a2.81,2.81,0,0,0,5.62,0C69.69,46.4,61.22,38.74,50,38.74Z"/><circle cx="50.09" cy="29.38" r="5.63"/><path d="M92.67,29.08,52.36,5.64a4.69,4.69,0,0,0-4.72,0L7.33,29.08A4.67,4.67,0,0,0,5,33.13V90.32a4.69,4.69,0,0,0,9.38,0V35.83L50,15.11,85.62,35.83V90.32a4.69,4.69,0,0,0,9.38,0V33.13A4.68,4.68,0,0,0,92.67,29.08Z"/></svg>