<svg id="Layer_1" data-name="Layer 1" xmlns="http://www.w3.org/2000/svg" viewBox="0 0 100 100"><title>icon</title><path d="M27.85,53.45a22.51,22.51,0,0,1,5-10.62,12.79,12.79,0,0,1,1-1.08,18.44,18.44,0,0,0-10.15-3,18.74,18.74,0,0,0-9.38,35v2.55A3.76,3.76,0,0,0,18.11,80H29.37a3.75,3.75,0,0,0,3.75-3.75v-3.9a21.39,21.39,0,0,1-2.61-3.6A22.46,22.46,0,0,1,27.85,53.45Zm-17.26,4a13.16,13.16,0,0,1,3.77-9.23V66.73A13.14,13.14,0,0,1,10.59,57.5Z"/><circle cx="23.75" cy="27.49" r="7.5"/><circle cx="76.26" cy="27.49" r="7.5"/><path d="M76.26,38.75a18.5,18.5,0,0,0-10.2,3c.35.35.71.75,1,1.14a21.77,21.77,0,0,1,2.38,3.34,22.45,22.45,0,0,1,0,22.49,22.81,22.81,0,0,1-2.59,3.58v3.94A3.76,3.76,0,0,0,70.63,80H81.89a3.76,3.76,0,0,0,3.75-3.75V73.71a18.74,18.74,0,0,0-9.38-35Zm9.38,28V48.27a13.18,13.18,0,0,1,0,18.46Z"/><circle cx="50" cy="27.49" r="7.5"/><path d="M68.74,57.5a18.48,18.48,0,0,0-1.86-8.12c-.11-.24-.22-.47-.35-.71a19.12,19.12,0,0,0-3.4-4.54A18.68,18.68,0,0,0,50,38.75a21.75,21.75,0,0,0-3.55.31,18.44,18.44,0,0,0-9.6,5,17.83,17.83,0,0,0-3.39,4.54,4.23,4.23,0,0,0-.34.67,17.85,17.85,0,0,0-1.58,4.79,18.78,18.78,0,0,0,1.58,11.53c.11.23.22.47.35.7a18.84,18.84,0,0,0,7.15,7.37v.86c0,.06,0,.12,0,.17s0,.1,0,.15v1.37A3.76,3.76,0,0,0,44.37,80H55.63a3.76,3.76,0,0,0,3.75-3.75V74.89s0-.09,0-.15,0-.11,0-.17v-.86a18.29,18.29,0,0,0,3.75-2.85,18.73,18.73,0,0,0,3.4-4.54c.13-.23.24-.47.35-.71A18.47,18.47,0,0,0,68.74,57.5ZM40.62,66.71a4,4,0,0,1-.34-.37,12.85,12.85,0,0,1-3.41-8.16,3.88,3.88,0,0,0,0-.68,3.77,3.77,0,0,0,0-.67,12.88,12.88,0,0,1,3.41-8.18c.1-.13.23-.24.34-.38V66.71Zm19.1-.39a4,4,0,0,1-.34.39V48.29c.11.12.24.25.34.38A12.86,12.86,0,0,1,63.11,57a4.18,4.18,0,0,0,0,.5,4.35,4.35,0,0,0,0,.51A12.85,12.85,0,0,1,59.72,66.32Z"/></svg>